<?xml version="1.0" standalone="no"?>
<!DOCTYPE svg PUBLIC "-//W3C//DTD SVG 20010904//EN"
 "http://www.w3.org/TR/2001/REC-SVG-20010904/DTD/svg10.dtd">
<svg version="1.0" xmlns="http://www.w3.org/2000/svg"
 width="512.000000pt" height="512.000000pt" viewBox="0 0 512.000000 512.000000"
 preserveAspectRatio="xMidYMid meet">

<g transform="translate(0.000000,512.000000) scale(0.100000,-0.100000)"
fill="#000000" stroke="none">
<path d="M34 4876 l-34 -34 0 -271 0 -271 29 -32 c24 -27 36 -33 71 -33 35 0
47 6 71 33 l29 32 0 205 0 205 166 0 166 0 29 29 c49 49 35 128 -28 160 -14 7
-100 11 -243 11 l-222 0 -34 -34z"/>
<path d="M4578 4894 c-57 -31 -66 -107 -19 -155 l29 -29 166 0 166 0 0 -205 0
-205 29 -32 c24 -27 36 -33 71 -33 35 0 47 6 71 33 l29 32 0 271 0 271 -34 34
-34 34 -223 0 c-178 -1 -230 -4 -251 -16z"/>
<path d="M545 4471 c-11 -5 -29 -19 -40 -31 -19 -21 -20 -38 -23 -490 -2 -289
1 -477 7 -493 13 -35 56 -61 99 -61 26 0 41 8 63 32 l29 32 0 410 0 410 150 0
150 0 0 -1225 0 -1225 -150 0 -150 0 0 411 0 411 -29 29 c-51 50 -133 36 -160
-28 -8 -21 -11 -157 -9 -497 l3 -468 33 -29 32 -29 275 0 c181 0 282 4 299 11
13 6 32 25 41 43 15 28 16 146 13 1384 l-3 1354 -33 29 -32 29 -273 -1 c-149
0 -281 -4 -292 -8z"/>
<path d="M1571 4467 c-52 -30 -50 0 -51 -911 0 -807 -1 -852 -19 -915 -37
-126 -45 -186 -45 -331 1 -165 22 -276 79 -416 78 -189 213 -364 374 -483 313
-233 729 -286 1094 -140 44 18 82 28 86 23 155 -177 914 -992 940 -1010 165
-109 378 -92 521 42 139 130 169 340 74 515 -24 43 -124 140 -531 513 l-501
460 15 36 c29 68 63 174 79 249 20 91 23 318 6 405 -9 44 -12 309 -12 983 0
615 -3 931 -10 944 -25 45 -53 49 -335 49 -282 0 -310 -4 -335 -49 -6 -13 -10
-203 -10 -541 0 -493 -1 -522 -17 -515 -31 12 -205 55 -224 55 -18 0 -19 18
-19 491 l0 491 -34 34 c-38 38 -72 43 -116 17 -16 -9 -33 -27 -39 -40 -7 -16
-11 -180 -11 -503 l0 -480 -37 0 c-31 0 -139 -20 -250 -47 l-23 -5 0 516 0
517 -24 24 c-47 47 -112 43 -150 -9 -21 -27 -21 -40 -24 -584 l-3 -557 -61
-40 c-34 -22 -102 -77 -150 -123 l-88 -84 -2 686 -3 686 -26 25 c-30 31 -85
41 -118 22z m1909 -828 l0 -642 -42 49 c-61 70 -135 139 -195 181 l-53 36 0
509 0 508 145 0 145 0 0 -641z m-676 -423 c453 -126 750 -553 697 -1002 -44
-373 -302 -679 -666 -790 -83 -25 -104 -28 -255 -28 -151 0 -172 3 -255 28
-105 32 -230 96 -314 160 -248 191 -390 526 -352 831 49 406 333 718 736 811
81 18 328 12 409 -10z m886 -1770 l34 -36 -120 -121 -121 -121 -85 88 c-47 49
-97 103 -112 120 l-26 32 113 113 112 114 85 -77 c47 -42 101 -92 120 -112z
m469 -426 c226 -204 276 -254 297 -298 71 -143 -28 -306 -186 -307 -100 0
-119 14 -358 279 -119 133 -235 260 -256 284 l-40 43 125 125 c68 68 129 123
135 122 6 -2 133 -113 283 -248z"/>
<path d="M4034 4471 c-57 -25 -54 39 -54 -1126 l0 -1071 28 -27 c57 -55 150
-24 166 54 11 54 7 2061 -4 2100 -6 20 -19 44 -29 53 -22 20 -78 29 -107 17z"/>
<path d="M4505 4471 c-11 -5 -29 -19 -40 -31 -20 -22 -20 -36 -20 -1387 l0
-1365 33 -29 c44 -40 93 -40 133 0 l29 29 0 1362 c0 915 -3 1368 -10 1381 -12
22 -61 49 -87 48 -10 0 -27 -4 -38 -8z"/>
<path d="M515 3126 c-34 -34 -41 -71 -21 -113 19 -39 67 -64 109 -56 39 8 77
57 77 100 0 80 -109 125 -165 69z"/>
<path d="M44 1835 c-42 -28 -45 -57 -42 -339 l3 -268 28 -24 c28 -24 29 -24
263 -24 l236 0 29 29 c48 49 35 126 -26 156 -25 11 -68 15 -184 15 l-151 0 0
195 c0 207 -6 242 -49 265 -28 15 -83 12 -107 -5z"/>
<path d="M4967 1839 c-41 -24 -47 -59 -47 -264 l0 -195 -151 0 c-116 0 -159
-4 -184 -15 -61 -30 -74 -107 -26 -156 l29 -29 236 0 c234 0 235 0 263 24 l28
24 3 268 c3 282 0 311 -42 339 -24 17 -83 19 -109 4z"/>
</g>
</svg>
